<?xml version="1.0" standalone="no"?>
<!DOCTYPE svg PUBLIC "-//W3C//DTD SVG 20010904//EN"
 "http://www.w3.org/TR/2001/REC-SVG-20010904/DTD/svg10.dtd">
<svg version="1.0" xmlns="http://www.w3.org/2000/svg"
 width="592.000000pt" height="829.000000pt" viewBox="0 0 592.000000 829.000000"
 preserveAspectRatio="xMidYMid meet">

<g transform="translate(0.000000,829.000000) scale(0.100000,-0.100000)"
fill="#000000" stroke="none">
<path d="M0 4145 l0 -4145 2960 0 2960 0 0 4145 0 4145 -2960 0 -2960 0 0
-4145z m3020 3454 l29 -84 0 -870 0 -870 -29 -35 -29 -35 -1 623 0 622 -30 0
-30 0 0 -673 0 -672 -46 -80 c-26 -44 -48 -82 -50 -84 -1 -1 -20 11 -41 28
-21 17 -67 42 -103 57 -125 50 -140 61 -140 96 0 25 11 42 49 79 l49 47 -38
16 c-20 8 -79 24 -129 36 -88 21 -121 38 -121 63 0 15 25 53 58 89 14 15 23
31 19 34 -3 4 -48 18 -99 31 -82 22 -116 26 -291 28 -188 2 -236 9 -213 32 11
12 352 13 421 2 64 -10 178 -42 234 -65 l34 -14 -57 -59 c-31 -33 -56 -64 -56
-70 0 -11 12 -15 94 -31 33 -7 77 -18 98 -26 l38 -13 0 570 0 570 126 287 c69
158 144 329 167 380 22 51 44 89 49 84 4 -4 21 -46 38 -93z m-1251 -1537 c11
-16 22 -39 26 -53 6 -23 11 -25 63 -24 48 0 67 -6 116 -35 169 -101 403 -415
626 -837 24 -46 46 -83 49 -83 3 0 89 140 190 310 101 170 205 334 231 365
118 139 266 210 390 184 94 -19 347 -30 680 -29 190 0 356 2 370 4 14 2 86 7
160 10 161 8 424 31 485 42 17 3 74 21 128 40 126 43 255 70 269 56 19 -19 -7
-38 -68 -51 -33 -8 -67 -23 -81 -37 -25 -25 -31 -72 -12 -91 29 -29 5 -127
-44 -181 l-21 -22 27 -28 c15 -16 27 -32 27 -36 0 -5 -16 -26 -36 -48 -19 -22
-50 -73 -69 -114 -25 -54 -50 -90 -90 -129 -69 -66 -210 -166 -312 -222 -74
-40 -77 -43 -98 -101 -60 -165 -187 -295 -344 -353 -47 -17 -62 -28 -86 -67
-16 -26 -64 -83 -106 -127 -161 -168 -377 -255 -631 -256 -79 -1 -88 -3 -94
-21 -9 -28 2 -33 114 -46 216 -25 404 -93 486 -175 55 -56 66 -98 43 -171 -9
-27 -15 -52 -13 -54 3 -2 23 14 47 35 52 47 98 49 179 8 129 -65 235 -152 511
-415 96 -93 195 -179 219 -191 74 -39 209 -36 359 7 l24 7 -27 -49 c-58 -106
-130 -162 -264 -205 -159 -51 -375 -55 -492 -9 -73 29 -168 98 -223 162 -90
107 -183 273 -231 414 -20 60 -26 69 -47 69 -24 0 -24 -1 -30 -125 -4 -69 -12
-147 -19 -175 -15 -59 -62 -156 -84 -174 -14 -11 -16 -43 -16 -214 l0 -200 81
-89 81 -89 -111 -377 c-61 -207 -111 -381 -111 -387 0 -5 102 -62 226 -125
124 -63 228 -120 231 -127 4 -11 -133 -219 -144 -217 -2 1 -119 98 -259 215
l-254 214 -2 110 c-1 61 -2 146 -4 190 -1 44 -2 152 -3 240 l-1 160 -106 90
c-225 191 -391 399 -438 550 -24 77 -25 110 -10 177 24 103 115 372 131 385 8
6 36 14 62 18 62 8 75 17 66 44 -7 24 -27 24 -134 -3 l-46 -11 -65 -195 c-35
-107 -65 -196 -65 -198 -1 -1 -40 23 -86 54 -46 32 -169 99 -274 150 l-190 93
-171 30 c-160 29 -179 34 -314 96 -79 37 -157 73 -173 82 l-30 15 84 45 c46
24 90 50 97 57 7 6 25 61 42 121 30 112 29 124 -10 125 -11 0 -22 -27 -40 -96
-13 -52 -28 -101 -34 -109 -15 -18 -299 -165 -320 -165 -9 0 -106 45 -217 100
l-200 101 -177 -129 c-97 -71 -177 -134 -177 -140 0 -6 81 -84 180 -173 99
-88 184 -164 188 -168 7 -7 -245 -322 -262 -329 -4 -1 -15 56 -24 128 l-16
131 -148 160 c-81 88 -156 170 -166 183 -18 23 -18 23 161 282 l180 259 265 3
c305 3 267 -15 287 130 16 120 57 228 178 472 l107 215 0 75 c-1 62 -6 84 -28
127 -14 28 -31 54 -37 58 -5 3 -10 10 -10 14 0 4 54 38 119 76 136 78 126 58
130 243 l2 93 -28 -3 -28 -3 -3 -112 -3 -112 -62 -37 c-127 -75 -247 -135
-423 -213 -100 -44 -205 -91 -232 -105 -56 -29 -77 -26 -86 9 -3 13 -18 37
-32 54 -43 51 -32 70 172 293 149 163 184 207 179 225 -13 53 42 168 161 332
19 27 24 46 24 92 0 33 4 59 9 59 5 0 19 -13 30 -28z m543 -143 c5 -31 1 -34
-60 -39 l-63 -5 153 -69 c84 -38 161 -76 171 -86 17 -15 15 -19 -34 -80 -28
-35 -55 -73 -59 -84 -7 -20 -8 -20 -20 6 -14 30 -3 55 48 110 l25 27 -24 10
c-13 5 -73 33 -134 61 -83 39 -122 64 -157 100 l-46 49 26 3 c64 7 172 6 174
-3z m278 -504 c106 -48 160 -81 160 -100 0 -26 -19 -25 -67 4 -26 16 -79 43
-118 60 -57 26 -74 39 -94 73 l-23 41 28 -20 c16 -11 67 -37 114 -58z m223
-2067 l117 -61 0 -553 0 -554 -145 0 -145 0 0 625 0 625 28 -11 c15 -6 80 -38
145 -71z m225 -137 c9 -11 12 -131 12 -523 l0 -508 -30 0 -30 0 0 536 c0 509
1 536 18 523 9 -7 23 -20 30 -28z m584 -1139 c22 -21 23 -31 23 -152 0 -111
-3 -132 -18 -147 -17 -17 -59 -18 -663 -21 l-644 -2 -25 24 c-24 24 -25 31
-25 149 0 135 5 151 55 166 17 6 302 9 652 8 l622 -2 23 -23z m-728 -480 c-66
-48 -143 -104 -171 -125 l-53 -39 0 126 0 126 171 0 172 0 -119 -88z m374 67
c-2 -15 -99 -98 -298 -254 l-295 -232 -3 91 c-3 80 -1 93 16 103 10 7 110 80
223 163 l204 150 78 0 c74 0 78 -1 75 -21z m1 -196 l0 -98 -225 -175 c-124
-96 -259 -201 -300 -233 l-74 -58 0 98 0 98 297 233 c164 127 299 232 300 232
2 0 3 -44 2 -97z m1 -272 l0 -98 -246 -187 -247 -186 -53 0 -54 0 0 53 1 52
297 232 c163 128 298 233 300 233 1 0 2 -44 2 -99z m-2 -253 l-3 -72 -104 -73
-104 -73 -90 0 -90 0 84 64 c46 34 131 99 189 144 58 44 109 81 113 81 4 1 7
-32 5 -71z m-1 -215 c-3 -2 -27 -3 -53 -1 l-48 3 49 32 50 33 3 -31 c2 -17 1
-33 -1 -36z m203 -168 l0 -85 -500 0 c-275 0 -500 3 -501 8 0 4 -1 42 -2 85
l-2 77 502 0 503 0 0 -85z"/>
<path d="M2612 5655 l-23 -30 23 -19 c23 -18 23 -18 26 8 2 14 2 36 0 48 -3
22 -4 22 -26 -7z"/>
<path d="M1669 5708 c-35 -56 -65 -104 -67 -108 -1 -4 9 -12 22 -18 24 -11 27
-7 92 95 62 100 65 107 48 120 -10 7 -21 13 -24 13 -4 0 -36 -46 -71 -102z"/>
<path d="M5041 5779 c-72 -25 -187 -47 -351 -65 -156 -18 -734 -26 -960 -14
-433 23 -423 23 -459 3 -25 -13 -105 -114 -292 -368 -256 -347 -258 -350 -239
-370 12 -12 23 -16 28 -10 5 6 122 164 260 351 183 248 260 345 281 354 18 7
51 10 88 6 274 -28 1009 -34 1253 -11 173 17 309 39 390 65 84 26 94 33 85 59
-8 25 -14 25 -84 0z"/>
<path d="M5001 5580 c-150 -54 -357 -70 -816 -65 -209 3 -393 7 -408 9 -16 3
-97 8 -181 11 -186 9 -202 4 -279 -94 -28 -36 -141 -178 -250 -315 -181 -228
-196 -249 -180 -262 10 -7 21 -14 25 -14 4 0 117 139 253 309 166 208 256 313
275 321 17 7 49 10 77 7 26 -3 116 -9 198 -12 83 -4 161 -9 175 -11 38 -6 697
-5 765 1 190 18 300 38 392 71 39 14 41 17 31 40 -13 28 -8 28 -77 4z"/>
<path d="M3513 5323 c-25 -14 -254 -255 -476 -501 -20 -22 -20 -22 -1 -37 10
-8 22 -13 26 -12 3 1 106 110 227 242 122 132 229 245 239 252 35 24 86 22
304 -11 328 -51 491 -68 698 -72 244 -5 395 22 383 67 -8 29 -16 30 -64 14
-149 -53 -585 -30 -1076 56 -140 24 -218 25 -260 2z"/>
<path d="M2076 5257 c-16 -12 -15 -16 8 -67 47 -103 61 -175 60 -315 0 -105
-5 -150 -27 -236 -27 -112 -68 -221 -118 -320 -17 -34 -29 -62 -27 -64 2 -1
13 -7 24 -13 20 -11 24 -4 72 96 93 199 132 360 132 546 0 126 -23 239 -66
330 -28 60 -31 63 -58 43z"/>
<path d="M3580 5064 c-34 -15 -73 -49 -278 -248 -112 -107 -113 -109 -94 -128
19 -19 21 -17 168 123 82 78 162 154 177 170 49 48 81 51 209 18 212 -54 397
-81 568 -81 87 -1 173 4 196 11 37 10 41 14 36 36 -4 25 -7 26 -51 18 -25 -4
-116 -8 -201 -8 -173 1 -284 17 -500 71 -150 38 -179 40 -230 18z"/>
<path d="M3698 4862 c-9 -4 -90 -74 -181 -157 -154 -140 -164 -151 -150 -167
9 -10 19 -18 24 -18 4 0 78 65 166 145 135 124 163 145 190 145 18 0 89 -22
157 -50 174 -69 262 -91 386 -97 111 -4 136 2 126 34 -5 17 -17 19 -108 20
-118 1 -208 24 -387 98 -106 43 -191 61 -223 47z"/>
<path d="M3800 4580 c-23 -4 -73 -35 -147 -94 -99 -77 -112 -90 -103 -107 15
-28 25 -24 94 29 148 117 156 122 194 122 20 0 69 -12 107 -26 136 -49 161
-55 212 -56 54 -1 123 31 123 57 0 30 -27 37 -62 15 -46 -28 -84 -25 -192 16
-107 39 -174 53 -226 44z"/>
<path d="M1997 4000 c-65 -119 -208 -155 -392 -98 -87 28 -86 28 -96 1 -7 -20
-3 -24 44 -42 128 -47 270 -53 359 -14 53 24 114 82 143 136 20 38 20 39 1 53
-11 8 -22 14 -25 14 -3 0 -18 -23 -34 -50z"/>
<path d="M2235 3933 c-3 -14 -5 -26 -3 -28 2 -1 46 -16 98 -34 269 -93 496
-265 648 -492 29 -42 36 -48 53 -39 26 15 25 23 -21 90 -158 232 -432 429
-717 513 l-51 15 -7 -25z"/>
<path d="M3406 3381 c-17 -26 -36 -147 -36 -225 0 -156 50 -290 150 -399 50
-54 59 -60 74 -48 23 19 20 33 -15 67 -51 47 -108 143 -131 219 -27 85 -29
230 -5 318 14 54 14 58 -3 67 -23 12 -27 12 -34 1z"/>
</g>
</svg>
